HIERARCHY
ROOT Hips
{
    OFFSET 0.000000 0.000000 0.000000
    CHANNELS 6 Xposition Yposition Zposition Zrotation Xrotation Yrotation
    JOINT Spine
    {
        OFFSET -0.000000 0.083210 0.000000
        CHANNELS 3 Zrotation Xrotation Yrotation
        JOINT Spine1
        {
            OFFSET -0.000000 0.256334 0.000000
            CHANNELS 3 Zrotation Xrotation Yrotation
            JOINT Neck
            {
                OFFSET -0.000000 0.275576 0.002912
                CHANNELS 3 Zrotation Xrotation Yrotation
                JOINT Head
                {
                    OFFSET -0.000000 0.157287 0.020295
                    CHANNELS 3 Zrotation Xrotation Yrotation
                    End Site
                    {
                        OFFSET -0.000000 0.202951 0.000000
                    }
                }
            }
            JOINT LeftShoulder
            {
                OFFSET 0.041044 0.235234 -0.000041
                CHANNELS 3 Zrotation Xrotation Yrotation
                JOINT LeftArm
                {
                    OFFSET 0.117964 0.000000 0.000000
                    CHANNELS 3 Zrotation Xrotation Yrotation
                    JOINT LeftForeArm
                    {
                        OFFSET 0.291248 0.000000 0.000000
                        CHANNELS 3 Zrotation Xrotation Yrotation
                        JOINT LeftHand
                        {
                            OFFSET 0.245673 0.000000 0.000000
                            CHANNELS 3 Zrotation Xrotation Yrotation
                            End Site
                            {
                                OFFSET 0.152213 0.000000 0.000000
                            }
                        }
                    }
                }
            }
            JOINT RightShoulder
            {
                OFFSET -0.040052 0.235234 -0.000041
                CHANNELS 3 Zrotation Xrotation Yrotation
                JOINT RightArm
                {
                    OFFSET -0.117964 0.000000 0.000000
                    CHANNELS 3 Zrotation Xrotation Yrotation
                    JOINT RightForeArm
                    {
                        OFFSET -0.291248 0.000000 0.000000
                        CHANNELS 3 Zrotation Xrotation Yrotation
                        JOINT RightHand
                        {
                            OFFSET -0.245673 0.000000 0.000000
                            CHANNELS 3 Zrotation Xrotation Yrotation
                            End Site
                            {
                                OFFSET -0.152213 0.000000 0.000000
                            }
                        }
                    }
                }
            }
        }
    }
    JOINT LeftUpLeg
    {
        OFFSET 0.101475 0.000000 0.000000
        CHANNELS 3 Zrotation Xrotation Yrotation
        JOINT LeftLeg
        {
            OFFSET -0.000000 -0.446535 0.000000
            CHANNELS 3 Zrotation Xrotation Yrotation
            JOINT LeftFoot
            {
                OFFSET -0.000000 -0.400037 0.000000
                CHANNELS 3 Zrotation Xrotation Yrotation
                JOINT LeftToeBase
                {
                    OFFSET -0.000000 -0.065959 0.152213
                    CHANNELS 3 Zrotation Xrotation Yrotation
                    End Site
                    {
                        OFFSET -0.000000 0.000000 0.040590
                    }
                }
            }
        }
    }
    JOINT RightUpLeg
    {
        OFFSET -0.101475 0.000000 0.000000
        CHANNELS 3 Zrotation Xrotation Yrotation
        JOINT RightLeg
        {
            OFFSET -0.000000 -0.446535 0.000000
            CHANNELS 3 Zrotation Xrotation Yrotation
            JOINT RightFoot
            {
                OFFSET -0.000000 -0.400037 0.000000
                CHANNELS 3 Zrotation Xrotation Yrotation
                JOINT RightToeBase
                {
                    OFFSET -0.000000 -0.065959 0.152213
                    CHANNELS 3 Zrotation Xrotation Yrotation
                    End Site
                    {
                        OFFSET -0.000000 0.000000 0.040590
                    }
                }
            }
        }
    }
}
MOTION
Frames:    12
Frame Time:    0.008333
0.169744    0.723704    2.176758    -8.396614    -4.600817    25.247406    5.042881    14.509151    -7.732921    -1.806013    4.911121    -2.277859    11.897471    -2.651914    15.512355    -13.736260    -9.430364    17.906939    2.013304    8.414984    -19.066433    -41.354340    56.832157    -32.982090    29.776340    -20.816782    -73.910675    13.878740    -0.195932    -17.410582    0.678924    6.612847    22.579584    39.281170    37.250317    16.965134    -25.730873    -17.144909    50.028389    -11.475440    -6.991195    18.371590    14.671455    -27.588394    0.307779    -154.774658    77.334297    170.273392    4.737391    -11.767602    6.685212    -0.247885    -6.091912    7.547463    -13.839942    -51.724693    -13.672350    10.962554    50.753601    -6.128306    11.349828    6.150278    -8.182022    -0.037617    6.391069    1.243138    
0.169987    0.725316    2.176045    -8.577578    -4.055153    25.770592    5.373842    14.360713    -6.551119    -2.383595    4.837410    -1.849599    11.836458    -2.753162    15.884685    -14.393612    -9.524646    18.285820    2.100366    8.442019    -18.976166    -42.944763    57.500965    -30.719099    29.312349    -20.899643    -73.681610    14.243242    -0.805068    -17.237608    0.348159    6.801889    22.348164    39.551117    35.800217    18.130520    -25.290110    -17.659380    52.250603    -11.431440    -7.064917    17.821915    15.211323    -29.332592    0.949822    -150.726120    76.328743    163.955856    7.654240    -10.978700    11.775202    -0.358782    -3.941258    6.944242    -14.930328    -51.845196    -14.926540    11.219069    50.368561    -6.241461    11.332064    6.281374    -8.183261    -0.042009    6.362528    1.399835    
0.170176    0.727227    2.175654    -8.661690    -3.653190    26.390011    5.587336    14.368347    -5.514846    -2.848602    4.735451    -1.478400    11.933561    -2.939112    16.489429    -15.413030    -9.352399    18.959497    2.080488    8.626204    -18.674173    -44.886616    57.917820    -27.990561    28.773363    -21.245577    -73.578224    13.143755    -1.547552    -17.664822    -0.106856    6.719572    22.241213    40.068554    35.183773    19.137558    -25.419380    -18.451448    54.183201    -11.407761    -7.211676    17.219393    15.839647    -30.581877    1.716099    -148.468979    75.729820    160.078186    7.142414    -12.622389    13.909440    -0.215325    -6.303252    6.950253    -15.954333    -51.771828    -16.033907    11.428709    50.016293    -6.278905    11.345922    6.297515    -8.355965    -0.046654    6.380264    1.546585    
0.170884    0.729303    2.175111    -8.590064    -3.337268    27.176458    5.633926    14.441224    -4.551375    -3.247791    4.655489    -1.140164    11.751530    -3.149045    16.989391    -15.632542    -9.087321    19.474327    2.039335    9.011363    -18.357208    -46.655937    57.803139    -25.576035    28.300123    -21.125853    -73.412186    13.501586    -1.909466    -17.463696    -0.472571    6.489705    22.091558    40.315472    35.783344    20.189213    -26.763453    -19.776514    55.062992    -11.016583    -7.501376    16.748709    16.261894    -31.555460    2.429090    -146.796402    75.698822    159.573517    4.097212    -15.150090    10.914230    -0.187688    -6.298066    6.051079    -17.255232    -51.480934    -17.490198    11.421393    49.719276    -6.387373    11.365013    6.394771    -8.109694    -0.049212    6.339953    1.650736    
0.171013    0.731656    2.175122    -8.467849    -3.127929    27.976786    5.420260    14.614189    -3.641408    -3.392861    4.470712    -0.844495    11.689513    -3.204744    17.477781    -16.170465    -8.779152    20.027899    1.833847    9.479238    -18.004005    -48.760677    57.624783    -22.666168    28.090075    -21.366293    -73.192894    12.963223    -2.311726    -17.182579    -0.695455    6.262757    21.990372    40.273800    36.683434    21.301641    -28.414482    -20.987608    55.561584    -10.394240    -7.531776    15.915807    16.737951    -32.504562    3.508862    -145.674301    76.151276    160.252365    2.352616    -15.217663    6.244247    -0.131321    -7.906595    7.781262    -18.255239    -51.116150    -18.682364    11.130995    49.504814    -6.059981    11.527398    6.393418    -8.163112    -0.050284    6.282052    1.715920    
0.171601    0.734095    2.175020    -8.252232    -2.973677    28.946341    5.211769    14.875746    -2.883648    -3.552217    4.167768    -0.600054    11.517136    -3.236553    17.929617    -16.564526    -8.538149    20.520824    1.538666    10.104694    -17.578955    -50.713051    57.164295    -19.815231    28.014252    -21.530607    -72.964569    12.316724    -2.603855    -17.739807    -0.791106    6.248319    21.738256    39.609955    37.797714    22.821318    -29.944010    -22.279573    56.002834    -9.277675    -7.724810    15.831517    17.087254    -33.486431    4.311909    -143.094879    76.245186    158.024673    3.916734    -13.835327    5.646605    -0.116857    -8.285922    8.634631    -19.397480    -50.601074    -20.022882    10.663643    49.320782    -5.888868    11.728543    6.441509    -7.948675    -0.050971    6.216261    1.774290    
0.172142    0.736760    2.175145    -8.073911    -2.900005    29.974123    5.005699    15.103794    -2.165165    -3.596100    3.906023    -0.372716    11.121539    -3.197052    18.463747    -16.893343    -8.566016    21.039398    1.168593    10.698511    -17.101971    -52.592308    56.343967    -16.928480    27.894728    -21.356133    -72.985390    12.708419    -2.567245    -17.742008    -1.043483    5.680630    21.444134    39.469292    39.351849    24.040031    -31.423666    -23.412739    56.217407    -8.978911    -7.930845    15.378970    17.716337    -34.408642    5.212013    -141.270782    75.931511    155.645248    5.339085    -12.886158    7.772191    -0.260452    -5.358234    6.632993    -20.312305    -50.014256    -20.847586    10.444317    49.080025    -5.932431    11.976774    6.406870    -8.018991    -0.049320    6.141408    1.756983    
0.173055    0.739584    2.175310    -7.884389    -2.859670    31.206413    4.830213    15.291131    -1.620072    -3.662735    3.580470    -0.204294    11.021823    -3.047680    19.031433    -17.580038    -8.587470    21.650774    0.789880    11.247817    -16.497547    -54.231277    55.537159    -14.316328    27.733212    -21.056696    -73.004654    13.144197    -2.432484    -17.689461    -1.144144    5.103694    21.396748    39.456852    40.747734    24.697386    -32.606125    -24.383713    56.615772    -8.477478    -8.035538    14.923570    18.304485    -35.197491    5.589637    -139.333603    75.468292    151.418839    5.811839    -13.044301    10.708891    -0.239757    -5.656277    6.541259    -21.302895    -49.304817    -21.625130    10.278689    48.848557    -6.000413    12.293449    6.273722    -8.245775    -0.046089    6.065895    1.681573    
0.173731    0.742566    2.175755    -7.779725    -2.886060    32.480713    4.529131    15.490924    -0.971420    -3.452773    3.107716    -0.019849    10.722336    -2.818735    19.424540    -17.905928    -8.627144    22.049740    0.302647    11.798794    -15.837049    -55.566540    54.514809    -11.905575    27.019232    -20.518177    -73.438652    13.375000    -2.303063    -17.676043    -1.333479    4.824145    21.306540    39.329147    42.069767    25.403004    -33.423668    -25.312988    57.098206    -8.930477    -8.405166    14.589738    19.119644    -35.798946    6.068010    -137.862000    75.223846    148.562347    4.502657    -14.820180    11.127225    -0.166913    -6.512502    5.729639    -21.987900    -48.564697    -21.862862    10.277536    48.540909    -6.315647    12.720480    6.080723    -8.611391    -0.039448    5.986976    1.476551    
0.174860    0.745524    2.176009    -7.669531    -2.920735    33.940109    4.365406    15.490665    -0.575637    -3.365378    2.871902    0.100252    10.295095    -2.656499    19.910454    -18.012074    -8.837905    22.483892    -0.040625    12.193787    -14.990766    -56.745392    53.801277    -9.715523    26.810898    -20.410892    -73.638680    12.061429    -2.101331    -17.923239    -1.602276    4.484642    21.401335    39.405388    43.118782    25.855219    -34.054008    -26.128136    57.648510    -8.380421    -8.642264    14.806960    19.900347    -36.538860    6.379770    -136.365463    75.194801    147.541641    2.225316    -15.641557    7.750934    -0.142954    -6.841632    5.448447    -22.799444    -47.746666    -22.154659    10.299286    48.245487    -6.506847    13.255519    5.813996    -9.276224    -0.034443    5.899724    1.327254    
0.175655    0.748488    2.176311    -7.644908    -2.978481    35.496437    4.124419    15.440021    -0.140698    -3.083135    2.550240    0.213259    9.831654    -2.395853    20.328531    -18.155989    -9.132972    22.839790    -0.370301    12.445064    -14.188814    -57.831448    53.273430    -7.683187    26.314802    -20.057211    -73.940002    12.244123    -2.040781    -17.886965    -1.896298    4.338360    21.481443    39.372818    44.012215    26.342083    -34.286728    -26.773779    58.357246    -9.156818    -8.977201    14.258551    20.648592    -37.311878    6.907368    -134.164154    75.478439    145.245514    1.360462    -16.117317    5.573667    -0.140530    -6.599904    4.955570    -23.448593    -46.931572    -22.233187    10.397088    47.939903    -6.877728    13.842259    5.515821    -10.033682    -0.029149    5.782034    1.169771    
0.177006    0.751625    2.176591    -7.592143    -3.112894    37.277103    4.059962    15.403755    0.172051    -3.040511    2.227036    0.304539    9.413578    -2.210690    20.749468    -18.054272    -9.422303    23.185829    -0.521212    12.455463    -13.346006    -58.950661    53.065247    -5.675821    25.856554    -19.880590    -74.335022    12.285577    -2.055346    -17.598097    -2.010570    4.213639    21.503414    39.691086    44.714085    26.263721    -34.289280    -27.309181    59.361984    -8.909708    -9.111115    14.112850    21.345449    -38.196316    7.241877    -132.050491    75.787819    141.888596    0.231654    -15.961061    4.094890    -0.126304    -6.960256    5.013692    -24.203621    -45.894623    -22.470444    10.465101    47.657097    -7.167803    14.493391    5.145534    -10.830347    -0.024032    5.669804    1.004086    
